<svg width="114" height="27" viewBox="0 0 114 27" fill="none" xmlns="http://www.w3.org/2000/svg">
<g clip-path="url(#clip0)">
<path d="M17.8858 14.1959C17.8499 12.0188 18.7973 10.324 20.7261 9.11088C19.6383 7.54097 18.0341 6.65858 15.9128 6.46131C15.1582 6.39098 14.1935 6.56801 13.02 6.99685C11.7576 7.46137 11.0469 7.69226 10.8893 7.69226C10.5561 7.69226 9.91629 7.49705 8.96814 7.10355C8.02207 6.71107 7.21495 6.51483 6.54852 6.51483C5.42651 6.53301 4.38262 6.84075 3.41857 7.43805C2.45418 8.03603 1.68302 8.85289 1.10473 9.88657C0.367436 11.1717 0 12.7063 0 14.49C0 16.0955 0.270997 17.7008 0.814374 19.3074C1.32284 20.842 1.97268 22.1889 2.76078 23.3475C3.46144 24.4004 4.0774 25.1675 4.60177 25.6498C5.35669 26.3988 6.12716 26.7563 6.91734 26.7199C7.42546 26.7014 8.0912 26.5144 8.9156 26.1566C9.68642 25.8193 10.4586 25.6495 11.2305 25.6495C11.9491 25.6495 12.6937 25.8183 13.4662 26.1566C14.3248 26.5144 15.0269 26.6924 15.5702 26.6924C16.377 26.6575 17.1305 26.3092 17.8329 25.6498C18.0773 25.4347 18.3452 25.1407 18.6342 24.7661C18.9678 24.3297 19.2881 23.8835 19.5948 23.4281C19.8503 23.0354 20.0916 22.6337 20.3182 22.2239C20.5613 21.7826 20.7765 21.3267 20.9625 20.8588C21.0493 20.6626 21.1281 20.4622 21.199 20.257C21.2688 20.0519 21.339 19.843 21.4091 19.6285C20.7603 19.3438 20.1727 18.9407 19.647 18.423C18.4911 17.2829 17.9034 15.8729 17.8858 14.1959ZM36.9583 18.9667H36.8307L31.4893 6.85139H27.2947V26.3988H30.9504V13.739H31.1201L35.5839 23.7918H38.1477L42.5974 13.739H42.7678V26.3988H46.4656V6.85139H42.2998L36.9583 18.9667ZM14.5709 4.2941C15.5008 3.13417 15.9657 1.88537 15.9657 0.547038V0.279783C15.9657 0.189897 15.9567 0.10104 15.9394 0.0118408C15.2903 0.0475206 14.6024 0.253023 13.8741 0.626975C13.1468 1.0023 12.5464 1.47574 12.0722 2.04559C11.1257 3.17053 10.6518 4.37404 10.6518 5.65886V5.91239C10.6518 5.99336 10.6608 6.07775 10.6781 6.16764C12.134 6.31001 13.4316 5.68527 14.5709 4.2941ZM89.192 6.85139H93.3008V26.3991H89.192V6.85139ZM105.711 9.95862C108.148 9.95862 109.436 11.8205 109.436 13.8254H113.376V13.41C113.376 9.62961 110.471 6.47949 105.682 6.47949C100.552 6.47949 97.4923 9.83031 97.4923 15.5446V17.7502C97.4923 23.4627 100.524 26.772 105.667 26.772C110.584 26.772 113.376 23.5773 113.376 20.0265V19.597H109.437C109.437 21.617 108.176 23.2922 105.74 23.2922C103.245 23.2922 101.658 21.5305 101.658 17.7636V15.5597C101.658 11.8057 103.26 9.95862 105.711 9.95862ZM62.1807 19.1952C62.1807 21.8167 60.6363 23.2624 58.3695 23.2624C56.0881 23.2624 54.5441 21.8304 54.5441 19.1952V6.85139H50.4629V19.7682C50.4629 23.9365 53.438 26.7717 58.3688 26.7717C63.2858 26.7717 66.2751 23.9365 66.2751 19.7682V6.85139H62.1807V19.1952ZM79.8695 15.0142L76.9369 14.3562C75.2086 13.997 74.3016 13.2384 74.3016 12.1066C74.3016 10.6036 75.5339 9.65808 77.5187 9.65808C79.7572 9.65808 80.8764 10.9326 80.9753 12.3077H84.801C84.7585 8.85597 81.8543 6.45033 77.5322 6.45033C73.4378 6.45033 70.2069 8.5846 70.2069 12.4222C70.2069 15.7446 72.4745 17.2901 75.1948 17.8788L78.099 18.5513C80.0544 18.9952 81.0461 19.6402 81.0461 20.971C81.0461 22.4901 79.8273 23.5214 77.5467 23.5214C75.0953 23.5214 73.8056 22.2321 73.6929 20.7854H69.7534C69.8112 23.5495 71.6528 26.7717 77.349 26.7717C82.1377 26.7717 85.0997 24.4089 85.0997 20.5696C85.0983 17.0181 82.7036 15.629 79.8695 15.0142Z" fill="black"/>
</g>
<defs>
<clipPath id="clip0">
<rect width="113.376" height="26.7818" fill="white"/>
</clipPath>
</defs>
</svg>
