<svg width="110" height="32" viewBox="0 0 110 32" fill="none" xmlns="http://www.w3.org/2000/svg">
<g clip-path="url(#clip0)">
<path d="M27.2927 22.9211C26.5472 24.548 26.1896 25.2738 25.2294 26.7109C23.8899 28.7189 22.0012 31.2163 19.6608 31.2389C17.5804 31.2575 17.0457 29.9082 14.2233 29.9223C11.4014 29.937 10.8123 31.2622 8.73307 31.2435C6.3927 31.2226 4.60286 28.9662 3.26222 26.9599C-0.48422 21.3481 -0.876217 14.7626 1.43374 11.2622C3.07568 8.7753 5.66689 7.31959 8.10369 7.31959C10.5847 7.31959 12.1439 8.6574 14.1938 8.6574C16.1836 8.6574 17.3952 7.31738 20.2635 7.31738C22.4306 7.31738 24.7273 8.48 26.3646 10.4846C21.0032 13.3752 21.8751 20.9063 27.2927 22.9211Z" fill="black"/>
<path d="M18.0889 5.07327C19.1305 3.75756 19.9219 1.90037 19.6349 0.00134277C17.9321 0.117102 15.9407 1.18281 14.7791 2.57136C13.7243 3.83173 12.8536 5.70123 13.1917 7.51894C15.0505 7.57484 16.9732 6.48272 18.0889 5.07327Z" fill="black"/>
<path d="M36.8038 14.0021C36.8038 15.1422 35.9228 16.0615 34.5437 16.0615C33.2209 16.0615 32.34 15.1405 32.3675 14.0021C32.34 12.8106 33.2211 11.9163 34.5715 11.9163C35.9219 11.9163 36.7768 12.8106 36.8038 14.0021ZM32.479 30.9447V17.6885H36.6667V30.9447H32.479ZM43.7458 16.1439H38.7598V12.6745H53.0297V16.1439H47.961V30.9447H43.7447L43.7458 16.1439ZM66.3351 26.6895C66.3351 28.4236 66.3908 29.8331 66.4441 30.9456H62.8079L62.6151 29.0753H62.5313C62.0079 29.8879 60.7401 31.2447 58.3153 31.2447C55.5876 31.2447 53.5767 29.5625 53.5767 25.4697V17.6913H57.7922V24.8204C57.7922 26.7448 58.4257 27.9096 59.8857 27.9096C61.0439 27.9096 61.7044 27.1241 61.9793 26.4736C62.0883 26.2297 62.1152 25.9044 62.1152 25.5792V17.6913H66.3318V26.6901H66.3351V26.6895ZM69.6948 21.9167C69.6948 20.2622 69.6397 18.8529 69.5852 17.6891H73.2214L73.4142 19.5055H73.498C74.0484 18.6659 75.4246 17.3913 77.6577 17.3913C80.413 17.3913 82.4773 19.1802 82.4773 23.0833V30.9447H78.2907V23.5984C78.2907 21.8919 77.6842 20.7253 76.1702 20.7253C75.0121 20.7253 74.3238 21.5125 74.0495 22.2686C73.9399 22.5396 73.885 22.9192 73.885 23.2987V30.9425H69.697V21.9173L69.6948 21.9167ZM89.0612 25.6318C89.1989 27.3394 90.9074 28.153 92.8633 28.153C94.2958 28.153 95.4533 27.9633 96.5816 27.6115L97.1331 30.4021C95.7563 30.9448 94.0753 31.242 92.2561 31.242C87.682 31.242 85.0663 28.6134 85.0663 24.4647C85.0663 21.1031 87.1874 17.3913 91.8705 17.3913C96.2241 17.3913 97.8763 20.7237 97.8763 24.0056C97.8763 24.7103 97.7932 25.3343 97.7398 25.6313L89.0612 25.6318ZM93.9926 22.8112C93.9926 21.8094 93.5508 20.1278 91.623 20.1278C89.86 20.1278 89.144 21.6993 89.0326 22.8112H93.9926ZM100.355 27.3394C101.128 27.7985 102.725 28.3411 103.964 28.3411C105.232 28.3411 105.755 27.9064 105.755 27.2294C105.755 26.5523 105.342 26.2271 103.771 25.7115C100.989 24.7905 99.9143 23.2996 99.9424 21.7541C99.9424 19.2604 102.091 17.3891 105.426 17.3891C106.995 17.3891 108.402 17.7421 109.228 18.1493L108.483 20.9958C107.876 20.6706 106.721 20.2357 105.563 20.2357C104.545 20.2357 103.966 20.6427 103.966 21.3198C103.966 21.9438 104.489 22.2696 106.142 22.8382C108.704 23.705 109.779 24.9801 109.806 26.931C109.806 29.3981 107.823 31.2414 103.966 31.2414C102.204 31.2414 100.63 30.8337 99.6123 30.291L100.355 27.3394Z" fill="black"/>
</g>
<defs>
<clipPath id="clip0">
<rect width="109.805" height="31.2455" fill="white"/>
</clipPath>
</defs>
</svg>
