<svg width="151" height="25" viewBox="0 0 151 25" fill="none" xmlns="http://www.w3.org/2000/svg">
<g clip-path="url(#clip0)">
<path d="M21.6442 19.305H0L10.1075 0.651978H31.7519L21.6442 19.305Z" fill="black"/>
<path d="M38.1881 7.79871C35.7588 7.79871 34.5176 9.71031 34.5176 12.59C34.5176 15.3122 35.8597 17.3553 38.1881 17.3553C40.8212 17.3553 41.8083 14.9463 41.8083 12.59C41.8065 10.1295 40.5658 7.79871 38.1873 7.79871H38.1881ZM31.7331 0.651978H34.6188V7.56301H34.6699C35.4546 6.25442 37.0999 5.44253 38.5682 5.44253C42.6938 5.44253 44.6943 8.68993 44.6943 12.6433C44.6943 16.2812 42.9226 19.7109 39.0489 19.7109C37.2768 19.7109 35.3783 19.2669 34.5173 17.4861H34.4672V19.3456H31.7329V0.652436L31.7331 0.652054V0.651978ZM60.2045 17.3371C58.5586 17.3557 58.3887 17.3557 58.2631 17.3557C57.7317 17.3557 57.5794 17.0677 57.5794 16.3345V9.36967C57.5794 6.51687 54.8964 5.44253 52.3388 5.44253C49.4529 5.44253 46.593 6.46321 46.3911 9.94624H49.2763C49.4033 8.47991 50.5417 7.79871 52.162 7.79871C53.3263 7.79871 54.8707 8.0876 54.8707 9.6319C54.8707 11.3859 53.0227 11.1501 50.9469 11.5435C48.5168 11.8306 45.9097 12.3819 45.9097 15.7576C45.9097 18.4027 48.0356 19.7109 50.3896 19.7109C51.9341 19.7109 53.7818 19.2134 54.9216 18.0635C55.1485 19.2931 55.9848 19.7109 57.149 19.7109L60.3299 19.514L60.2045 17.3371ZM54.699 14.7899C54.699 16.6746 52.7244 17.356 51.4587 17.356C50.4458 17.356 48.7999 16.962 48.7999 15.6276C48.7999 14.0562 49.9143 13.5846 51.1551 13.3751C52.4203 13.1397 53.8128 13.1665 54.699 12.5644V14.7899Z" fill="#201D1C"/>
<path d="M67.0483 5.44245C65.3269 5.44245 63.8332 6.35866 62.9723 7.8519L62.9219 7.79871V5.80945H60.1879L60.1743 17.3371L60.2996 19.514L63.0734 19.3445V11.3605C63.0734 9.37013 64.3141 7.79909 66.2377 7.79909C67.9337 7.79909 68.7444 8.71591 68.7944 10.8361V19.3449H71.6815V10.0511C71.687 7.01456 69.8889 5.44291 67.053 5.44291L67.0483 5.44245ZM80.0871 17.3557C82.6688 17.3557 83.7579 14.9205 83.7579 12.5637C83.7579 9.58023 82.3659 7.79871 80.1376 7.79871C77.4288 7.79871 76.4667 10.2862 76.4667 12.7206C76.4667 15.0508 77.5801 17.3552 80.0876 17.3552L80.0871 17.3557ZM86.5421 19.3449H83.8078V17.5124H83.7579C82.9986 19.0572 81.3521 19.7109 79.707 19.7109C75.5815 19.7109 73.5811 16.5428 73.5811 12.4855C73.5811 7.58983 76.3914 5.44291 79.2523 5.44291C80.897 5.44291 82.7192 6.07168 83.6055 7.56301H83.6569V0.652588H86.5424V19.3454V19.3449H86.5421ZM98.0103 10.3391C97.7822 8.68962 96.618 7.79894 95.0234 7.79894C93.529 7.79894 91.4285 8.61098 91.4285 12.7215C91.4285 14.9733 92.39 17.356 94.8966 17.356C96.5671 17.356 97.7312 16.2027 98.0103 14.2652H100.896C100.364 17.7734 98.2636 19.7109 94.8966 19.7109C90.7955 19.7109 88.5426 16.7009 88.5426 12.7215C88.5426 8.6375 90.6944 5.44329 94.9978 5.44329C98.0354 5.44329 100.618 7.01403 100.896 10.3392H98.015L98.0104 10.3391H98.0103ZM116.327 17.3371C114.681 17.3557 114.511 17.3557 114.386 17.3557C113.854 17.3557 113.702 17.0677 113.702 16.3345V9.36967C113.702 6.51687 111.019 5.44253 108.461 5.44253C105.575 5.44253 102.715 6.46321 102.514 9.94624H105.399C105.526 8.4799 106.664 7.79871 108.285 7.79871C109.449 7.79871 110.993 8.0876 110.993 9.6319C110.993 11.3859 109.145 11.1501 107.069 11.5435C104.639 11.8306 102.032 12.3819 102.032 15.7576C102.032 18.4027 104.158 19.7109 106.512 19.7109C108.057 19.7109 109.904 19.2134 111.044 18.0635C111.271 19.2931 112.107 19.7109 113.272 19.7109L116.452 19.514L116.327 17.3371ZM110.822 14.7899C110.822 16.6746 108.847 17.356 107.581 17.356C106.568 17.356 104.922 16.962 104.922 15.6276C104.922 14.0562 106.037 13.5846 107.278 13.3751C108.543 13.1397 109.935 13.1665 110.822 12.5644L110.822 14.7899Z" fill="#201D1C"/>
<path d="M130.923 5.44238C129.024 5.44238 127.784 6.30685 126.822 7.69416C126.239 6.15025 124.746 5.44246 123.15 5.44246C121.075 5.44246 119.986 6.35859 119.126 7.69416H119.05V5.80946H116.314V17.337L116.446 19.514L119.2 19.3445V11.3077C119.2 9.05633 120.567 7.79902 122.061 7.79902C123.807 7.79902 124.365 8.79334 124.365 10.6536V19.3449H127.25V11.4125C127.25 9.13421 128.085 7.79925 130.035 7.79925C132.288 7.79925 132.414 9.29142 132.414 11.4391V19.3448H135.3V9.99899C135.301 6.69954 133.683 5.44292 130.925 5.44292L130.923 5.44238ZM144.365 7.79864C141.935 7.79864 140.694 9.71024 140.694 12.59C140.694 15.3121 142.036 17.3552 144.365 17.3552C146.997 17.3552 147.986 14.9462 147.986 12.59C147.986 10.1294 146.743 7.79864 144.365 7.79864ZM137.91 5.80939H140.644V7.64196H140.695C141.505 6.0979 143.074 5.44238 144.745 5.44238C148.871 5.44238 150.871 8.68986 150.871 12.6432C150.871 16.2812 149.099 19.7109 145.227 19.7109C143.556 19.7109 141.758 19.0828 140.847 17.5915H140.796V24.3444H137.91V5.81053V5.80939Z" fill="#201D1C"/>
</g>
<defs>
<clipPath id="clip0">
<rect width="150.871" height="24.9964" fill="white"/>
</clipPath>
</defs>
</svg>
