<svg width="135" height="26" viewBox="0 0 135 26" fill="none" xmlns="http://www.w3.org/2000/svg">
<g clip-path="url(#clip0)">
<path d="M31.5571 17.1827C31.5571 22.6123 34.8867 25.862 39.834 25.862C42.3008 25.862 44.3768 25.1715 45.5361 23.3571L45.5361 25.862L50.0519 25.862L50.0519 8.67264e-08L45.3608 6.47287e-08L45.3608 10.9947C44.2959 9.18034 42.3278 8.36792 39.8609 8.36792C35.035 8.35438 31.5571 11.6718 31.5571 17.1827ZM45.5091 17.1827C45.5091 20.2834 43.4062 22.2197 40.8854 22.2197C38.2703 22.2197 36.2617 20.2834 36.2617 17.1827C36.2617 14.0278 38.2837 12.0509 40.8854 12.0509C43.4062 12.0509 45.5091 14.0549 45.5091 17.1827ZM64.651 19.1866C64.1118 21.1906 62.7503 22.1926 60.6069 22.1926C58.1131 22.1926 56.0641 20.6761 56.0102 17.9951L67.8323 17.9951C67.9806 17.3316 68.048 16.6275 68.048 15.8557C68.048 11.0489 64.7858 8.34084 59.9733 8.34084C54.8374 8.34084 51.3056 12.0103 51.3056 16.9931C51.3056 22.5446 55.2014 25.8755 60.5934 25.8755C64.6645 25.8755 67.4279 24.1695 68.6411 20.7708L64.651 19.1866ZM56.0102 14.8537C56.455 12.9175 58.0592 11.7801 59.9868 11.7801C62.0897 11.7801 63.5186 12.9175 63.5186 14.7048L63.4917 14.8537L56.0102 14.8537ZM82.0539 19.1866C81.5147 21.1906 80.1532 22.1926 78.0098 22.1926C75.516 22.1926 73.467 20.6761 73.4131 17.9951L85.2352 17.9951C85.3835 17.3316 85.4509 16.6275 85.4509 15.8557C85.4509 11.0489 82.1887 8.34084 77.3763 8.34084C72.2403 8.34084 68.7085 12.0103 68.7085 16.9931C68.7085 22.5446 72.6043 25.8755 77.9963 25.8755C82.0674 25.8755 84.8308 24.1695 86.044 20.7708L82.0539 19.1866ZM73.4131 14.8537C73.8579 12.9175 75.4621 11.7801 77.3897 11.7801C79.4926 11.7801 80.9215 12.9175 80.9215 14.7048L80.8946 14.8537L73.4131 14.8537ZM102.005 25.8891L102.005 21.6239L92.1505 21.6239L101.735 12.254L101.735 8.35438L86.5697 8.35438L86.5697 12.4165L95.8306 12.4165L86.2732 21.827L86.2732 25.8891L102.005 25.8891ZM115.714 19.1866C115.175 21.1906 113.813 22.1926 111.67 22.1926C109.176 22.1926 107.127 20.6761 107.073 17.9951L118.895 17.9951C119.044 17.3316 119.111 16.6275 119.111 15.8557C119.111 11.0489 115.849 8.34084 111.036 8.34084C105.9 8.34084 102.369 12.0103 102.369 16.9931C102.369 22.5446 106.264 25.8755 111.656 25.8755C115.727 25.8755 118.491 24.1695 119.704 20.7708L115.714 19.1866ZM107.073 14.8537C107.518 12.9175 109.122 11.7801 111.05 11.7801C113.153 11.7801 114.582 12.9175 114.582 14.7048L114.555 14.8537L107.073 14.8537Z" fill="black"/>
<path fill-rule="evenodd" clip-rule="evenodd" d="M20.9617 8.35437L26.7447 8.35437L26.7447 11.753L20.9617 11.753L20.9617 8.35437Z" fill="black"/>
<path fill-rule="evenodd" clip-rule="evenodd" d="M20.9617 13.0664L26.7447 13.0664L26.7447 16.465L20.9617 16.465L20.9617 13.0664Z" fill="url(#paint0_linear)"/>
<path fill-rule="evenodd" clip-rule="evenodd" d="M20.9617 17.7784L26.7447 17.7784L26.7447 21.1771L20.9617 21.1771L20.9617 17.7784Z" fill="url(#paint1_linear)"/>
<path fill-rule="evenodd" clip-rule="evenodd" d="M0 22.4905L5.783 22.4905L5.783 25.8891L-1.59369e-08 25.8891L0 22.4905Z" fill="url(#paint2_linear)"/>
<path fill-rule="evenodd" clip-rule="evenodd" d="M6.98273 22.4905L12.7657 22.4905L12.7657 25.8891L6.98273 25.8891L6.98273 22.4905Z" fill="url(#paint3_linear)"/>
<path fill-rule="evenodd" clip-rule="evenodd" d="M13.9789 22.4905L19.7619 22.4905L19.7619 25.8891L13.9789 25.8891L13.9789 22.4905Z" fill="url(#paint4_linear)"/>
<path fill-rule="evenodd" clip-rule="evenodd" d="M20.9617 22.4905L26.7447 22.4905L26.7447 25.8891L20.9617 25.8891L20.9617 22.4905Z" fill="url(#paint5_linear)"/>
<path fill-rule="evenodd" clip-rule="evenodd" d="M13.9789 17.7784L19.7619 17.7784L19.7619 21.1771L13.9789 21.1771L13.9789 17.7784Z" fill="url(#paint6_linear)"/>
<path fill-rule="evenodd" clip-rule="evenodd" d="M6.98273 17.7784L12.7657 17.7784L12.7657 21.1771L6.98273 21.1771L6.98273 17.7784Z" fill="url(#paint7_linear)"/>
<path fill-rule="evenodd" clip-rule="evenodd" d="M6.98273 13.0664L12.7657 13.0664L12.7657 16.465L6.98273 16.465L6.98273 13.0664Z" fill="url(#paint8_linear)"/>
<path d="M130.232 14.4069L130.232 14.9079L134.802 14.9079L134.802 13.5674C134.802 10.5615 132.928 8.38147 129.787 8.38147C127.765 8.38147 126.336 9.36991 125.595 11.0083L125.595 8.38147L120.877 8.38147L120.877 25.8891L125.595 25.8891L125.595 14.61C125.595 12.8227 126.552 11.8342 128.021 11.8342C129.369 11.8478 130.232 13.1206 130.232 14.4069Z" fill="black"/>
</g>
<defs>
<linearGradient id="paint0_linear" x1="23.8816" y1="16.4943" x2="23.8265" y2="13.0164" gradientUnits="userSpaceOnUse">
<stop/>
</linearGradient>
<linearGradient id="paint1_linear" x1="20.8767" y1="21.0026" x2="26.8433" y2="17.976" gradientUnits="userSpaceOnUse">
<stop/>
<stop offset="1"/>
</linearGradient>
<linearGradient id="paint2_linear" x1="0.000978977" y1="24.191" x2="5.77914" y2="24.191" gradientUnits="userSpaceOnUse">
<stop/>
</linearGradient>
<linearGradient id="paint3_linear" x1="6.98909" y1="24.191" x2="12.7672" y2="24.191" gradientUnits="userSpaceOnUse">
<stop/>
</linearGradient>
<linearGradient id="paint4_linear" x1="13.9772" y1="24.191" x2="19.7554" y2="24.191" gradientUnits="userSpaceOnUse">
<stop/>
</linearGradient>
<linearGradient id="paint5_linear" x1="20.9584" y1="24.191" x2="26.7366" y2="24.191" gradientUnits="userSpaceOnUse">
<stop/>
<stop offset="1"/>
</linearGradient>
<linearGradient id="paint6_linear" x1="13.749" y1="20.3941" x2="19.9879" y2="18.5779" gradientUnits="userSpaceOnUse">
<stop/>
</linearGradient>
<linearGradient id="paint7_linear" x1="6.7834" y1="18.3471" x2="12.9794" y2="20.5922" gradientUnits="userSpaceOnUse">
<stop offset="1"/>
</linearGradient>
<linearGradient id="paint8_linear" x1="7.4748" y1="12.5382" x2="12.3012" y2="16.9722" gradientUnits="userSpaceOnUse">
<stop offset="0.003"/>
</linearGradient>
<clipPath id="clip0">
<rect width="134.802" height="25.8891" fill="white"/>
</clipPath>
</defs>
</svg>
