<svg width="52" height="51" viewBox="0 0 52 51" fill="none" xmlns="http://www.w3.org/2000/svg">
    <path d="M45.1112 17.6173C45.0215 15.5841 44.6927 14.1862 44.2216 12.9749C43.7356 11.6892 42.9879 10.5381 42.0083 9.58117C41.0512 8.60935 39.8922 7.85421 38.6212 7.37589C37.4027 6.90488 36.0118 6.57607 33.9782 6.48642C31.9293 6.38918 31.2789 6.3667 26.0824 6.3667C20.8859 6.3667 20.2355 6.38918 18.1942 6.47883C16.1606 6.56848 14.7624 6.89758 13.5512 7.3683C12.265 7.85421 11.1136 8.60176 10.1565 9.58117C9.18452 10.5381 8.42952 11.6968 7.95082 12.9676C7.47972 14.1862 7.15085 15.5765 7.06118 17.6098C6.96393 19.6582 6.94144 20.3085 6.94144 25.504C6.94144 30.6995 6.96393 31.3498 7.05359 33.3907C7.14326 35.424 7.47242 36.8218 7.94352 38.0331C8.42952 39.3188 9.18452 40.4699 10.1565 41.4269C11.1136 42.3987 12.2726 43.1538 13.5436 43.6321C14.7624 44.1031 16.153 44.432 18.1869 44.5216C20.2279 44.6115 20.8786 44.6337 26.0751 44.6337C31.2716 44.6337 31.922 44.6115 33.9633 44.5216C35.9969 44.432 37.3951 44.1031 38.6063 43.6321C41.1785 42.6378 43.2122 40.6045 44.2067 38.0331C44.6775 36.8145 45.0066 35.424 45.0963 33.3907C45.186 31.3498 45.2085 30.6995 45.2085 25.504C45.2085 20.3085 45.2009 19.6582 45.1112 17.6173ZM41.6645 33.2412C41.5821 35.11 41.2682 36.1192 41.0065 36.792C40.3634 38.4591 39.04 39.7822 37.3726 40.4253C36.6997 40.6869 35.683 41.0008 33.821 41.0829C31.8023 41.1728 31.1968 41.195 26.09 41.195C20.9832 41.195 20.3701 41.1728 18.3587 41.0829C16.4894 41.0008 15.48 40.6869 14.8071 40.4253C13.9774 40.1186 13.2221 39.6327 12.609 38.9973C11.9735 38.3768 11.4875 37.6292 11.1808 36.7996C10.9191 36.1268 10.6051 35.11 10.5231 33.2488C10.4331 31.2304 10.4109 30.6247 10.4109 25.5189C10.4109 20.4131 10.4331 19.8001 10.5231 17.7893C10.6051 15.9205 10.9191 14.9113 11.1808 14.2385C11.4875 13.4086 11.9735 12.6537 12.6166 12.0405C13.237 11.4051 13.9847 10.9192 14.8147 10.6128C15.4876 10.3512 16.5046 10.0373 18.3663 9.95495C20.385 9.8653 20.9908 9.84281 26.0973 9.84281C31.2117 9.84281 31.8172 9.8653 33.8286 9.95495C35.6979 10.0373 36.7072 10.3512 37.3802 10.6128C38.2099 10.9192 38.9652 11.4051 39.5783 12.0405C40.2138 12.661 40.6998 13.4086 41.0065 14.2385C41.2682 14.9113 41.5821 15.9278 41.6645 17.7893C41.7542 19.8077 41.7767 20.4131 41.7767 25.5189C41.7767 30.6247 41.7542 31.2228 41.6645 33.2412Z" fill="black"/>
    <path d="M26.0826 15.6738C20.6545 15.6738 16.2504 20.0768 16.2504 25.5041C16.2504 30.9315 20.6545 35.3344 26.0826 35.3344C31.5109 35.3344 35.9147 30.9315 35.9147 25.5041C35.9147 20.0768 31.5109 15.6738 26.0826 15.6738ZM26.0826 31.8808C22.5611 31.8808 19.7047 29.0252 19.7047 25.5041C19.7047 21.983 22.5611 19.1275 26.0826 19.1275C29.6043 19.1275 32.4605 21.983 32.4605 25.5041C32.4605 29.0252 29.6043 31.8808 26.0826 31.8808Z" fill="black"/>
    <path d="M38.5991 15.2852C38.5991 16.5525 37.5713 17.5801 36.3035 17.5801C35.0359 17.5801 34.0081 16.5525 34.0081 15.2852C34.0081 14.0175 35.0359 12.9902 36.3035 12.9902C37.5713 12.9902 38.5991 14.0175 38.5991 15.2852Z" fill="black"/>
</svg>
