<svg width="71" height="41" viewBox="0 0 71 41" fill="none" xmlns="http://www.w3.org/2000/svg">
<g clip-path="url(#clip0)">
<path d="M3.9628 15.6984C3.81324 15.6984 3.69048 15.8181 3.67165 15.9833L2.98251 22.2373L3.67165 28.3532C3.69048 28.5154 3.81324 28.6352 3.9628 28.6352C4.10983 28.6352 4.23006 28.5183 4.25396 28.3532L5.03399 22.2373L4.25396 15.9804C4.2297 15.8156 4.10947 15.6984 3.9628 15.6984ZM1.37681 18.0955C1.22978 18.0955 1.11499 18.2073 1.09616 18.3667L0.583374 22.2373L1.09616 26.039C1.11499 26.198 1.22978 26.3102 1.37681 26.3102C1.5184 26.3102 1.6332 26.198 1.6571 26.039L2.26078 22.2373L1.6571 18.3667C1.6332 18.2069 1.5184 18.0955 1.37681 18.0955ZM6.70886 14.4723C6.52454 14.4723 6.37751 14.6158 6.35868 14.8152L5.70684 22.2373L6.35868 29.3853C6.37751 29.5851 6.52454 29.7282 6.70886 29.7282C6.89029 29.7282 7.03732 29.5851 7.06158 29.3882L7.80142 22.2373L7.06158 14.8152C7.03732 14.6158 6.89029 14.4723 6.70886 14.4723ZM9.47882 14.2115C9.26226 14.2115 9.08627 14.3843 9.06997 14.6133L8.4529 22.2376L9.06997 29.6146C9.08591 29.8433 9.26226 30.0156 9.47882 30.0156C9.69538 30.0156 9.87137 29.8429 9.8902 29.6146L10.5906 22.2376L9.8902 14.6108C9.87173 14.3843 9.69538 14.2115 9.47882 14.2115ZM12.7406 15.1611C12.7246 14.9003 12.5218 14.7034 12.273 14.7034C12.0192 14.7034 11.8189 14.9003 11.803 15.1665L11.2207 22.2373L11.803 29.6752C11.8189 29.9381 12.0195 30.1383 12.273 30.1383C12.5218 30.1383 12.7246 29.9381 12.7406 29.6752L13.4033 22.2373L12.7406 15.1611ZM15.089 10.2104C14.8058 10.2104 14.5733 10.439 14.5599 10.7344L14.0124 22.2427L14.5599 29.6777C14.5733 29.968 14.8058 30.1992 15.089 30.1992C15.3667 30.1992 15.5992 29.967 15.6177 29.6749V29.6777L16.2348 22.2427L15.6177 10.7319C15.5989 10.4394 15.3667 10.2104 15.089 10.2104ZM17.8829 7.55798C17.5649 7.55798 17.306 7.81619 17.2926 8.14075L16.7823 22.2827L17.2926 29.6727C17.306 29.9947 17.5649 30.2522 17.8829 30.2522C18.1954 30.2522 18.4572 29.9944 18.4706 29.6698V29.6727L19.0504 22.2827L18.4706 8.14075C18.4572 7.81619 18.1957 7.55798 17.8829 7.55798ZM20.7868 6.28136C20.4341 6.28136 20.1484 6.56337 20.1379 6.92508L19.6595 22.2452L20.1379 29.5576C20.1484 29.9139 20.4344 30.1963 20.7868 30.1963C21.1341 30.1963 21.4198 29.9143 21.4332 29.5555V29.5613L21.9699 22.2452L21.4332 6.92508C21.4198 6.56337 21.1341 6.28136 20.7868 6.28136ZM24.377 6.40902C24.3636 6.01522 24.0536 5.70652 23.669 5.70652C23.2815 5.70652 22.969 6.01522 22.961 6.40902L22.5178 22.2456L22.961 29.5158C22.9634 29.7014 23.039 29.8785 23.1715 30.009C23.304 30.1395 23.4827 30.2129 23.669 30.2133C24.0536 30.2133 24.3636 29.9049 24.377 29.5111L24.8738 22.2459L24.377 6.40902ZM24.377 29.5104V29.5158V29.5104ZM26.573 6.05236C26.1536 6.05236 25.8143 6.38775 25.8063 6.81329L25.4 22.2452L25.8063 29.4466C25.8143 29.8696 26.1536 30.2053 26.573 30.2053C26.9923 30.2053 27.3291 29.8696 27.3425 29.4419V29.4495L27.7966 22.2456L27.3425 6.81365C27.3287 6.38775 26.9923 6.05236 26.573 6.05236ZM29.5008 6.55796C29.0467 6.55796 28.6835 6.91967 28.6726 7.37983L28.304 22.2474L28.6748 29.4011C28.6828 29.8562 29.046 30.218 29.5001 30.218C29.9542 30.218 30.3203 29.8562 30.3283 29.3961V29.4019L30.7447 22.2485L30.3283 7.37803C30.327 7.16025 30.2392 6.95184 30.0842 6.79822C29.9292 6.64461 29.7195 6.55824 29.5008 6.55796ZM32.9414 3.82297C32.7967 3.72665 32.6267 3.67485 32.4526 3.67403C32.2762 3.67403 32.1107 3.72704 31.9717 3.81756C31.8484 3.89774 31.7469 4.00689 31.676 4.13537C31.6052 4.26386 31.5672 4.40774 31.5653 4.55432L31.5599 4.72201L31.2286 22.2445C31.2286 22.255 31.565 29.3557 31.565 29.3557V29.3845C31.5758 29.5847 31.6504 29.7675 31.7736 29.9114C31.8558 30.0118 31.9592 30.0927 32.0766 30.1485C32.1939 30.2043 32.3222 30.2336 32.4522 30.2342C32.6927 30.2342 32.9118 30.1328 33.0718 29.9731C33.2319 29.8133 33.3336 29.5951 33.3391 29.3528L33.3764 28.6478L33.7132 22.2474L33.3391 4.55432C33.3363 4.40965 33.2987 4.26776 33.2295 4.14052C33.1603 4.01328 33.0616 3.90439 32.9414 3.82297ZM33.3394 29.3561V29.3528V29.3561V29.351V29.3528V29.3561ZM35.8715 2.14714C35.7059 2.04619 35.5127 1.9996 35.3191 2.01397C35.1255 2.02834 34.9414 2.10293 34.7927 2.2272C34.6847 2.31491 34.5974 2.42517 34.537 2.55017C34.4765 2.67518 34.4444 2.81188 34.4429 2.95061L34.4403 3.04906L34.0536 22.2506L34.2513 25.7996L34.4436 29.2551C34.449 29.7657 34.8738 30.1891 35.3887 30.1891C35.9048 30.1891 36.3296 29.7657 36.3372 29.2475V29.2551L36.7565 22.2506L36.3372 2.95061C36.3341 2.78839 36.2898 2.6296 36.2083 2.48908C36.1269 2.34857 36.011 2.23091 35.8715 2.14714ZM61.9233 13.1156C60.745 13.1156 59.6205 13.3522 58.595 13.7806C57.9109 6.06066 51.4088 0.0057373 43.4806 0.0057373C41.5981 0.00786625 39.732 0.354158 37.9751 1.02739C37.3258 1.27731 37.1549 1.53551 37.1473 2.0357V29.2259C37.1549 29.7499 37.563 30.157 38.0765 30.2075C38.0979 30.2104 61.9237 30.2075 61.9237 30.2075C66.676 30.2075 70.5258 26.4166 70.5258 21.6841C70.5255 16.9516 66.6756 13.1156 61.9233 13.1156ZM7.45123 35.3623C6.44414 35.1261 6.17182 34.9981 6.17182 34.6021C6.17182 34.323 6.39888 34.0327 7.08005 34.0327C7.66236 34.0327 8.11647 34.2663 8.52532 34.685L9.44442 33.799C8.84328 33.1744 8.11647 32.8011 7.12568 32.8011C5.87306 32.8011 4.8551 33.5087 4.8551 34.658C4.8551 35.9054 5.67244 36.2779 6.84539 36.5462C8.04477 36.8174 8.26133 37.0013 8.26133 37.4085C8.26133 37.8874 7.90607 38.0973 7.15247 38.0973C6.54337 38.0973 5.97192 37.8874 5.52577 37.371L4.60957 38.1853C5.09049 38.8903 6.01755 39.3346 7.08041 39.3346C8.81431 39.3346 9.58094 38.5232 9.58094 37.3176C9.58058 35.94 8.46123 35.5999 7.45123 35.3623ZM13.3044 32.8011C11.5705 32.8011 10.5449 34.1419 10.5449 36.0684C10.5449 37.9974 11.5709 39.3353 13.3044 39.3353C15.0408 39.3353 16.0664 37.9974 16.0664 36.0684C16.0664 34.1419 15.0408 32.8011 13.3044 32.8011ZM13.3044 38.0793C12.2785 38.0793 11.8512 37.199 11.8512 36.0684C11.8512 34.9378 12.2785 34.0601 13.3044 34.0601C14.3329 34.0601 14.7602 34.9382 14.7602 36.0684C14.7602 37.1979 14.3329 38.0793 13.3044 38.0793ZM21.2011 36.459C21.2011 37.4698 20.7013 38.0973 19.8949 38.0973C19.0855 38.0973 18.5937 37.4536 18.5937 36.4398V32.9014H17.3223V36.4582C17.3223 38.3043 18.3587 39.3342 19.8949 39.3342C21.5111 39.3342 22.4729 38.2754 22.4729 36.4402V32.9017H21.2014L21.2011 36.459ZM27.9618 35.5812C27.9618 35.9324 27.9777 36.7305 27.9777 36.9646C27.8977 36.8023 27.6894 36.486 27.5341 36.2494L25.2791 32.9028H24.0612V39.2365H25.3167V36.4489C25.3167 36.0954 25.2979 35.2992 25.2979 35.0655C25.3808 35.2274 25.5891 35.5444 25.7415 35.781L28.0791 39.2365H29.2144V32.9028H27.9614V35.5812H27.9618ZM32.84 32.9021H30.8527V39.2361H32.7492C34.3845 39.2361 36.0033 38.2945 36.0033 36.0673C36.0033 33.751 34.6565 32.9021 32.84 32.9021ZM32.7492 38.0046H32.1219V34.1344H32.7977C34.1412 34.1344 34.6971 34.7748 34.6971 36.068C34.6963 37.2275 34.0847 38.0046 32.7492 38.0046ZM39.9379 34.0593C40.5093 34.0593 40.8729 34.3147 41.1028 34.7453L42.2805 34.2058C41.8803 33.381 41.1564 32.8008 39.9563 32.8008C38.2927 32.8008 37.1306 34.1419 37.1306 36.0677C37.1306 38.0688 38.2467 39.335 39.9111 39.335C41.0655 39.335 41.8264 38.8027 42.2649 37.9033L41.1905 37.27C40.8541 37.8319 40.5198 38.0793 39.9455 38.0793C38.992 38.0793 38.4361 37.2065 38.4361 36.0677C38.4361 34.892 38.984 34.0593 39.9379 34.0593ZM44.6554 32.9021H43.3836V39.2361H47.2084V37.988H44.6543V32.9017H44.6554V32.9021ZM50.5563 32.8011C48.8224 32.8011 47.7936 34.1419 47.7936 36.0684C47.7936 37.9974 48.8224 39.3353 50.5563 39.3353C52.2928 39.3353 53.3212 37.9974 53.3212 36.0684C53.3212 34.1419 52.2928 32.8011 50.5563 32.8011ZM50.5563 38.0793C49.5304 38.0793 49.1027 37.199 49.1027 36.0684C49.1027 34.9378 49.5304 34.0601 50.5563 34.0601C51.5848 34.0601 52.0099 34.9382 52.0099 36.0684C52.0099 37.1979 51.5848 38.0793 50.5563 38.0793ZM58.4534 36.459C58.4534 37.4698 57.9562 38.0973 57.1472 38.0973C56.3378 38.0973 55.8457 37.4536 55.8457 36.4398V32.9014H54.5746V36.4582C54.5746 38.3043 55.6106 39.3342 57.1472 39.3342C58.7634 39.3342 59.7274 38.2754 59.7274 36.4402V32.9017H58.4534V36.459ZM63.3067 32.9021H61.3164V39.2361H63.2125C64.8526 39.2361 66.4667 38.2945 66.4667 36.0673C66.467 33.751 65.1257 32.9021 63.3067 32.9021ZM63.2125 38.0046H62.5879V34.1344H63.2603C64.6042 34.1344 65.1565 34.7748 65.1565 36.068C65.1576 37.2275 64.5517 38.0046 63.2125 38.0046Z" fill="black"/>
</g>
<defs>
<clipPath id="clip0">
<rect width="70.5255" height="40.1727" fill="white"/>
</clipPath>
</defs>
</svg>
