<svg width="118" height="35" viewBox="0 0 118 35" fill="none" xmlns="http://www.w3.org/2000/svg">
<g clip-path="url(#clip0)">
<path d="M17.6716 8.28661e-08C7.91205 3.71014e-08 -3.65471e-08 7.79385 -8.16294e-08 17.4079C-1.26717e-07 27.0229 7.91205 34.8163 17.6716 34.8163C27.4316 34.8163 35.3432 27.0229 35.3432 17.4079C35.3432 7.79447 27.432 0.000830992 17.6714 0.000830946L17.6716 8.28661e-08ZM25.7757 25.1071C25.4583 25.62 24.7801 25.7806 24.2612 25.4682C20.1114 22.9698 14.8882 22.4054 8.73691 23.7896C8.14416 23.9235 7.5533 23.5574 7.41826 22.9737C7.28256 22.3898 7.65248 21.8077 8.24672 21.6747C14.9783 20.1587 20.7525 20.8112 25.4104 23.615C25.9295 23.9289 26.0941 24.5962 25.7754 25.1075L25.7757 25.1071ZM27.9386 20.3678C27.5389 21.0066 26.6911 21.207 26.0434 20.8147C21.2944 17.939 14.0528 17.106 8.43432 18.7861C7.70566 19.0029 6.93606 18.5984 6.71491 17.8818C6.49545 17.164 6.90632 16.4074 7.6337 16.1891C14.0515 14.2708 22.0298 15.2 27.4847 18.5021C28.1326 18.895 28.3372 19.7307 27.9384 20.368L27.9386 20.3678ZM28.1243 15.432C22.428 12.0996 13.032 11.7932 7.59422 13.4189C6.72103 13.6798 5.79759 13.1942 5.53297 12.334C5.26835 11.4734 5.76088 10.5644 6.63471 10.3029C12.8769 8.43619 23.2539 8.79684 29.8112 12.6315C30.5966 13.0907 30.8543 14.09 30.3888 14.8626C29.9245 15.6363 28.9074 15.8914 28.1245 15.432L28.1243 15.432ZM48.0785 16.0706C45.0274 15.3538 44.4842 14.8508 44.4842 13.7937C44.4842 12.7951 45.4386 12.1231 46.858 12.1231C48.2338 12.1231 49.5981 12.6334 51.0284 13.684C51.0717 13.7158 51.1259 13.7285 51.1793 13.7202C51.2327 13.7123 51.2799 13.6834 51.3112 13.6399L52.801 11.5711C52.8622 11.4859 52.8455 11.3685 52.763 11.3034C51.0607 9.95783 49.1438 9.30364 46.9032 9.30364C43.6087 9.30364 41.3075 11.2512 41.3075 14.0378C41.3075 17.026 43.2926 18.0841 46.7229 18.9008C49.6426 19.5633 50.1354 20.1183 50.1354 21.1105C50.1354 22.21 49.1389 22.8935 47.5354 22.8935C45.7544 22.8935 44.3017 22.3025 42.6766 20.9162C42.6363 20.8819 42.581 20.8663 42.53 20.8692C42.4761 20.8736 42.427 20.8981 42.3928 20.9386L40.7223 22.897C40.6523 22.9783 40.6611 23.0997 40.7422 23.17C42.6329 24.8327 44.9584 25.711 47.4679 25.711C51.0179 25.711 53.3119 23.8002 53.3119 20.8428C53.3182 18.3462 51.801 16.9639 48.0849 16.0733L48.0785 16.0706ZM61.3434 13.1063C59.8046 13.1063 58.5425 13.7033 57.5017 14.9267L57.5017 13.5497C57.5017 13.441 57.4122 13.3524 57.3021 13.3524L54.57 13.3524C54.4596 13.3524 54.3704 13.441 54.3704 13.5497L54.3704 28.8497C54.3704 28.9584 54.4596 29.047 54.57 29.047L57.3021 29.047C57.4122 29.047 57.5017 28.9584 57.5017 28.8497L57.5017 24.0201C58.5427 25.1709 59.805 25.7333 61.3434 25.7333C64.2025 25.7333 67.0969 23.5651 67.0969 19.4205C67.1011 15.2749 64.2059 13.1061 61.3465 13.1061L61.3434 13.1063ZM63.9199 19.4205C63.9199 21.5311 62.6002 23.0039 60.7105 23.0039C58.8423 23.0039 57.4331 21.4641 57.4331 19.4205C57.4331 17.3771 58.8423 15.8372 60.7105 15.8372C62.5696 15.837 63.9202 17.3436 63.9202 19.4203L63.9199 19.4205ZM74.5153 13.1063C70.8332 13.1063 67.9485 15.8993 67.9485 19.4656C67.9485 22.993 70.8134 25.7567 74.4702 25.7567C78.1654 25.7567 81.0589 22.9731 81.0589 19.4205C81.0589 15.8802 78.1848 13.1067 74.5151 13.1067L74.5153 13.1063ZM74.5153 23.0249C72.5568 23.0249 71.0803 21.4747 71.0803 19.4195C71.0803 17.3555 72.5058 15.8577 74.4702 15.8577C76.4413 15.8577 77.9278 17.4078 77.9278 19.4646C77.9278 21.5281 76.4928 23.0249 74.5155 23.0249L74.5153 23.0249ZM88.9218 13.3524L85.9154 13.3524L85.9154 10.3245C85.9154 10.216 85.8263 10.1275 85.7159 10.1275L82.9843 10.1275C82.8737 10.1275 82.784 10.216 82.784 10.3245L82.784 13.3524L81.4704 13.3524C81.3605 13.3524 81.2714 13.441 81.2714 13.5497L81.2714 15.8627C81.2714 15.9712 81.3605 16.06 81.4704 16.06L82.784 16.06L82.784 22.0449C82.784 24.4636 84.006 25.6898 86.4161 25.6898C87.3961 25.6898 88.2092 25.4905 88.9754 25.0624C89.0376 25.0281 89.0762 24.962 89.0762 24.8918L89.0762 22.6891C89.0762 22.6212 89.0404 22.5569 88.9813 22.5214C88.9218 22.4846 88.8477 22.4827 88.7867 22.5124C88.2604 22.7733 87.7517 22.8937 87.1829 22.8937C86.3064 22.8937 85.9154 22.5016 85.9154 21.623L85.9154 16.0611L88.9218 16.0611C89.0321 16.0611 89.121 15.9725 89.121 15.8638L89.121 13.551C89.1252 13.4423 89.0366 13.3537 88.9247 13.3537L88.9218 13.3524ZM99.3969 13.3643L99.3969 12.9924C99.3969 11.8983 99.8227 11.4105 100.778 11.4105C101.347 11.4105 101.805 11.5219 102.317 11.6903C102.38 11.7098 102.446 11.7 102.497 11.6628C102.55 11.6256 102.58 11.5659 102.58 11.5027L102.58 9.23483C102.58 9.14814 102.523 9.07144 102.439 9.04587C101.897 8.88725 101.205 8.72449 100.168 8.72449C97.6444 8.72449 96.3105 10.1243 96.3105 12.7712L96.3105 13.3408L94.9979 13.3408C94.8878 13.3408 94.7975 13.4293 94.7975 13.5378L94.7975 15.8627C94.7975 15.9712 94.8878 16.06 94.9979 16.06L96.3105 16.06L96.3105 25.2915C96.3105 25.4002 96.3996 25.4888 96.5097 25.4888L99.2418 25.4888C99.3522 25.4888 99.4421 25.4002 99.4421 25.2915L99.4421 16.0606L101.993 16.0606L105.9 25.2899C105.457 26.2596 105.021 26.4525 104.425 26.4525C103.944 26.4525 103.437 26.3109 102.919 26.0315C102.87 26.0051 102.812 26.0008 102.76 26.0168C102.707 26.0349 102.664 26.0731 102.641 26.123L101.715 28.1242C101.671 28.2188 101.709 28.3298 101.801 28.3789C102.768 28.8946 103.641 29.1147 104.719 29.1147C106.737 29.1147 107.852 28.1891 108.835 25.6987L113.574 13.6337C113.598 13.573 113.591 13.5044 113.553 13.4505C113.516 13.3971 113.455 13.3649 113.389 13.3649L110.545 13.3649C110.46 13.3649 110.383 13.4183 110.355 13.4971L107.442 21.6953L104.251 13.4917C104.222 13.4154 104.147 13.3649 104.064 13.3649L99.3963 13.3649L99.3969 13.3643ZM93.3237 13.3524L90.5916 13.3524C90.4812 13.3524 90.3913 13.441 90.3913 13.5497L90.3913 25.2915C90.3913 25.4002 90.4812 25.4888 90.5916 25.4888L93.3237 25.4888C93.4338 25.4888 93.5239 25.4002 93.5239 25.2915L93.5239 13.5505C93.524 13.5246 93.5189 13.4989 93.5088 13.4749C93.4987 13.4509 93.484 13.4292 93.4653 13.4108C93.4467 13.3925 93.4246 13.378 93.4002 13.3681C93.3759 13.3582 93.3498 13.3532 93.3235 13.3533L93.3237 13.3524ZM91.9731 8.0061C90.8908 8.0061 90.0126 8.86918 90.0126 9.93538C90.0126 11.0022 90.891 11.8663 91.9732 11.8663C93.0551 11.8663 93.9325 11.0022 93.9325 9.93538C93.9325 8.8694 93.0546 8.0061 91.9742 8.0061L91.9731 8.0061ZM115.907 17.1276C114.826 17.1276 113.985 16.2722 113.985 15.2335C113.985 14.1947 114.837 13.3296 115.917 13.3296C116.999 13.3296 117.84 14.1848 117.84 15.2227C117.84 16.2614 116.987 17.1276 115.907 17.1276L115.907 17.1276ZM115.918 13.5179C114.933 13.5179 114.188 14.2891 114.188 15.2335C114.188 16.1775 114.928 16.9383 115.908 16.9383C116.892 16.9383 117.638 16.1677 117.638 15.2227C117.638 14.2787 116.898 13.5179 115.919 13.5179L115.918 13.5179ZM116.344 15.4174L116.888 16.1675L116.429 16.1675L115.94 15.4794L115.519 15.4794L115.519 16.1675L115.135 16.1675L115.135 14.1794L116.035 14.1794C116.504 14.1794 116.812 14.4157 116.812 14.8136C116.814 15.1395 116.622 15.3387 116.346 15.4175L116.344 15.4175L116.344 15.4174ZM116.019 14.5205L115.519 14.5205L115.519 15.1493L116.019 15.1493C116.269 15.1493 116.418 15.0289 116.418 14.8346C116.418 14.63 116.268 14.5205 116.019 14.5205L116.019 14.5205L116.019 14.5205Z" fill="black"/>
</g>
<defs>
<clipPath id="clip0">
<rect width="117.84" height="34.8164" fill="white"/>
</clipPath>
</defs>
</svg>
