<svg width="51" height="51" viewBox="0 0 51 51" fill="none" xmlns="http://www.w3.org/2000/svg">
    <path d="M42.3194 27.6845C41.4949 26.6432 41.7308 26.18 42.3194 25.2492C42.33 25.2386 49.1364 15.8334 49.8376 12.6437L49.8419 12.6416C50.1904 11.4792 49.8419 10.625 48.1568 10.625H42.5808C41.1613 10.625 40.5067 11.3581 40.1561 12.1784C40.1561 12.1784 37.3171 18.9741 33.3009 23.3792C32.0046 24.6521 31.4054 25.0601 30.6978 25.0601C30.3493 25.0601 29.8074 24.6521 29.8074 23.4897V12.6416C29.8074 11.2476 29.41 10.625 28.2349 10.625H19.4671C18.5768 10.625 18.0476 11.2753 18.0476 11.8809C18.0476 13.2026 20.0558 13.5065 20.264 17.2252V25.2939C20.264 27.0619 19.9431 27.387 19.2313 27.387C17.3358 27.387 12.7351 20.5636 10.0088 12.7542C9.45838 11.2391 8.92075 10.6271 7.49063 10.6271H1.9125C0.320875 10.6271 0 11.3602 0 12.1805C0 13.6297 1.8955 20.8356 8.8145 30.3556C13.4257 36.8539 19.9198 40.375 25.8273 40.375C29.3781 40.375 29.8116 39.593 29.8116 38.2479C29.8116 32.0386 29.4908 31.4521 31.2694 31.4521C32.0939 31.4521 33.5134 31.8601 36.8284 34.9945C40.6172 38.7111 41.2399 40.375 43.3606 40.375H48.9366C50.5261 40.375 51.3315 39.593 50.8682 38.0503C49.8079 34.8054 42.6424 28.1307 42.3194 27.6845V27.6845Z" fill="black"/>
</svg>
