<svg width="52" height="51" viewBox="0 0 52 51" fill="none" xmlns="http://www.w3.org/2000/svg">
    <g clip-path="url(#clip0)">
        <path d="M50.2966 11.5367L50.3604 11.953C49.7438 9.76666 48.0804 8.07931 45.9657 7.46473L45.9209 7.45378C41.9456 6.37503 25.9466 6.37503 25.9466 6.37503C25.9466 6.37503 9.98851 6.35411 5.97234 7.45477C3.81783 8.07931 2.1514 9.76666 1.54579 11.9082L1.53483 11.953C0.0496847 19.7115 0.0387278 29.0337 1.60057 37.34L1.53483 36.9196C2.1514 39.106 3.81485 40.7934 5.92951 41.408L5.97433 41.4189C9.94568 42.5006 25.9486 42.5006 25.9486 42.5006C25.9486 42.5006 41.9047 42.5006 45.9229 41.4189C48.0794 40.7944 49.7458 39.107 50.3514 36.9655L50.3624 36.9206C51.0377 33.3129 51.4252 29.1602 51.4252 24.9189C51.4252 24.7636 51.4252 24.6062 51.4232 24.4498C51.4252 24.3054 51.4252 24.133 51.4252 23.9607C51.4252 19.7154 51.0377 15.5638 50.2966 11.5367ZM20.8427 32.1953V16.6983L34.1573 24.4588L20.8427 32.1953Z" fill="black"/>
    </g>
    <defs>
        <clipPath id="clip0">
            <rect width="51" height="51" fill="white" transform="translate(0.424988)"/>
        </clipPath>
    </defs>
</svg>
