<svg width="175" height="50" viewBox="0 0 175 50" fill="none" xmlns="http://www.w3.org/2000/svg">
<g clip-path="url(#clip0)">
<path d="M37.0853 17.0814C36.7076 15.6684 35.5884 14.5545 34.1664 14.1731C31.5935 13.4875 21.2714 13.4875 21.2714 13.4875C21.2714 13.4875 10.9543 13.4875 8.37626 14.1731C6.95817 14.5495 5.84023 15.6646 5.45741 17.0814C4.76935 19.6449 4.76935 24.9964 4.76935 24.9964C4.76935 24.9964 4.76935 30.3478 5.45741 32.9114C5.83514 34.3244 6.95435 35.4382 8.37626 35.8197C10.9543 36.5052 21.2714 36.5052 21.2714 36.5052C21.2714 36.5052 31.5935 36.5052 34.1664 35.8197C35.5845 35.4433 36.7025 34.3282 37.0853 32.9114C37.7734 30.3478 37.7734 24.9964 37.7734 24.9964C37.7734 24.9964 37.7734 19.6449 37.0853 17.0814Z" fill="black"/>
<path d="M17.9735 20.0631V29.9296L26.5482 24.9964L17.9735 20.0631Z" fill="white"/>
<path d="M52.6741 34.4283C52.0229 33.9886 51.5562 33.3093 51.2827 32.383C51.0093 31.4567 50.8681 30.2275 50.8681 28.6891V26.5969C50.8681 25.0433 51.0258 23.7976 51.3412 22.8561C51.6567 21.9145 52.1501 21.229 52.8166 20.8007C53.483 20.3711 54.3606 20.1518 55.4467 20.1518C56.5176 20.1518 57.3735 20.3711 58.0196 20.8108C58.6657 21.2505 59.1376 21.9361 59.4377 22.8662C59.7366 23.7976 59.8841 25.042 59.8841 26.5906V28.6827C59.8841 30.2211 59.7366 31.4554 59.4479 32.3868C59.1592 33.3182 58.6861 34.0038 58.0298 34.4321C57.3786 34.8617 56.4909 35.0809 55.3729 35.0809C54.2283 35.0872 53.3253 34.868 52.6741 34.4283ZM56.3332 32.1688C56.5112 31.6974 56.6066 30.9295 56.6066 29.8676V25.374C56.6066 24.3387 56.5176 23.5847 56.3332 23.1032C56.1551 22.6267 55.8346 22.3859 55.378 22.3859C54.9367 22.3859 54.6277 22.6267 54.4432 23.1032C54.2652 23.5797 54.1698 24.3375 54.1698 25.374V29.8676C54.1698 30.9346 54.2537 31.7038 54.4267 32.1688C54.5997 32.6402 54.9151 32.8747 55.3717 32.8747C55.8346 32.8747 56.15 32.639 56.3332 32.1688ZM102.8 28.7258V29.4532C102.8 30.3795 102.826 31.0702 102.883 31.5352C102.936 31.9952 103.051 32.3361 103.224 32.5452C103.397 32.7543 103.666 32.8645 104.028 32.8645C104.516 32.8645 104.852 32.6757 105.03 32.2994C105.208 31.923 105.309 31.2945 105.324 30.4163L108.134 30.5785C108.149 30.7039 108.155 30.8763 108.155 31.0968C108.155 32.4312 107.788 33.4247 107.058 34.0836C106.328 34.7426 105.294 35.072 103.954 35.072C102.348 35.072 101.224 34.5702 100.579 33.5653C99.9328 32.5604 99.6123 31.0119 99.6123 28.9096V26.3929C99.6123 24.2272 99.9481 22.6521 100.614 21.6535C101.281 20.66 102.426 20.162 104.048 20.162C105.166 20.162 106.022 20.366 106.621 20.774C107.22 21.1821 107.64 21.8157 107.887 22.6787C108.128 23.5416 108.254 24.7341 108.254 26.2522V28.722H102.8V28.7258ZM103.214 22.6584C103.051 22.8624 102.941 23.197 102.883 23.657C102.826 24.117 102.8 24.8241 102.8 25.7605V26.7959H105.183V25.7605C105.183 24.8342 105.151 24.1334 105.089 23.657C105.025 23.1805 104.911 22.8409 104.748 22.647C104.585 22.4531 104.328 22.3543 103.981 22.3543C103.634 22.3492 103.377 22.4544 103.214 22.6584ZM44.7455 28.4546L41.0381 15.1197H44.2724L45.5697 21.1618C45.9004 22.6533 46.142 23.9193 46.2997 24.9698H46.3938C46.5045 24.2171 46.7461 22.9562 47.1239 21.1821L48.4682 15.1134H51.7024L47.9531 28.4534V34.8515H44.7455V28.4546ZM70.3996 20.4344V34.8465H67.8534L67.5698 33.0838H67.5011C66.808 34.4181 65.7689 35.0822 64.3877 35.0822C63.4274 35.0822 62.7178 34.7679 62.2612 34.1406C61.8046 33.5134 61.5782 32.5351 61.5782 31.2007V20.4344H64.8328V31.0169C64.8328 31.6607 64.9015 32.1207 65.0427 32.3931C65.1838 32.6656 65.4204 32.8063 65.7511 32.8063C66.0347 32.8063 66.3081 32.7226 66.5651 32.5503C66.822 32.3779 67.0166 32.1574 67.1425 31.8913V20.4344H70.3996ZM87.1064 20.4344V34.8465H84.5602L84.2766 33.0838H84.2079C83.5147 34.4181 82.4757 35.0822 81.0944 35.0822C80.1342 35.0822 79.4245 34.7679 78.9679 34.1406C78.5114 33.5134 78.285 32.5351 78.285 31.2007V20.4344H81.5396V31.0169C81.5396 31.6607 81.6083 32.1207 81.7494 32.3931C81.8906 32.6656 82.1272 32.8063 82.4578 32.8063C82.7415 32.8063 83.0149 32.7226 83.2718 32.5503C83.5287 32.3779 83.7233 32.1574 83.8492 31.8913V20.4344H87.1064Z" fill="black"/>
<path d="M79.2516 17.7301H76.0173V34.8477H72.8301V17.7301H69.5958V15.1197H79.2465V17.7301H79.2516ZM97.8852 22.742C97.6855 21.8321 97.3701 21.1732 96.93 20.7651C96.4887 20.3571 95.8846 20.153 95.1138 20.153C94.5148 20.153 93.959 20.3203 93.4388 20.6599C92.9187 20.9945 92.5206 21.4393 92.237 21.9892H92.2102V14.3936H89.0701V34.8527H91.7588L92.0894 33.4879H92.1581C92.4099 33.9746 92.7877 34.356 93.2926 34.6386C93.7962 34.9212 94.3533 35.0618 94.9676 35.0618C96.0703 35.0618 96.8791 34.5549 97.398 33.545C97.9182 32.535 98.1751 30.956 98.1751 28.8056V26.5246C98.179 24.9127 98.0797 23.6518 97.8852 22.742ZM94.8976 28.6218C94.8976 29.6736 94.8557 30.4948 94.7666 31.0916C94.6827 31.6885 94.5352 32.1117 94.3304 32.3627C94.1256 32.6136 93.8522 32.739 93.5062 32.739C93.2379 32.739 92.9911 32.6757 92.7609 32.5502C92.5346 32.4247 92.3463 32.2359 92.2039 31.985V23.7976C92.3145 23.4047 92.5028 23.0866 92.7711 22.8345C93.0395 22.5836 93.3282 22.4581 93.6423 22.4581C93.973 22.4581 94.2299 22.5886 94.4092 22.8446C94.5873 23.1006 94.7132 23.5403 94.787 24.1473C94.8557 24.7594 94.8925 25.6274 94.8925 26.7578V28.6206H94.8976V28.6218ZM112.624 35.0618H115.513V18.8656L118.697 35.0618H121.363L124.695 18.4968V35.0821H127.51V15.1197H122.919L120.067 30.8927L117.068 15.1197H112.624V35.0618ZM136.026 35.0821H138.322V20.4344H135.211V32.0002C134.692 32.886 132.841 33.6235 132.841 31.8532V20.4356H129.731V32.2968C129.731 34.8058 133.138 37.0197 135.507 33.256L136.026 35.0821ZM150.319 20.4344H153.207V35.0821H150.319V20.4344ZM151.837 18.7186C150.839 18.7186 150.023 17.905 150.023 16.9102V16.468C150.023 15.4732 150.839 14.6597 151.837 14.6597C152.836 14.6597 153.652 15.4732 153.652 16.468V16.9102C153.651 17.905 152.836 18.7186 151.837 18.7186ZM145.654 25.1015H148.172C148.246 23.8837 148.32 20.1949 144.395 20.1949C141.136 20.1949 140.247 22.2604 140.247 24.1055C140.247 25.9506 141.186 27.2532 143.852 29.3201C146.123 30.5011 146.221 33.2066 144.345 33.2066C143.456 33.2066 142.913 32.6161 142.913 31.7797V30.4517H140.247V31.9762C140.247 33.3042 141.136 35.3216 144.246 35.3216C147.357 35.3216 148.443 33.5995 148.443 30.9434C148.443 28.2873 142.815 25.6794 142.815 23.8596C142.815 21.7447 145.617 21.9778 145.617 23.515L145.654 25.1015ZM158.515 23.9078C158.218 27.2532 158.465 29.8105 158.564 31.4338C158.699 33.6438 161.033 33.6476 161.033 31.3844V29.7611H163.748C163.748 32.7124 162.712 35.1226 159.798 35.1226C156.391 35.1226 155.404 32.7124 155.404 30.1539V25.8745C155.404 22.4315 156.885 20.1188 159.699 20.1188C163.451 20.1188 163.55 22.7749 163.55 24.0054V25.6287L161.032 25.8251V23.8571C161.033 22.4809 159.304 21.2517 158.515 23.9078Z" fill="black"/>
</g>
<defs>
<clipPath id="clip0">
<rect width="174.082" height="49.9927" fill="white"/>
</clipPath>
</defs>
</svg>
