<svg width="87" height="36" viewBox="0 0 87 36" fill="none" xmlns="http://www.w3.org/2000/svg">
<g clip-path="url(#clip0)">
<path d="M14.4991 28.9434C13.8063 28.7077 13.3328 28.3881 12.7546 27.7672C11.5402 26.4627 11.4734 26.0733 11.4734 20.2806C11.4734 14.699 11.5599 14.1733 12.6913 12.8627C14.2776 11.0258 17.9456 11.0801 19.5121 12.9637C20.5524 14.2148 20.637 14.7718 20.637 20.3663C20.637 24.7939 20.5982 25.5319 20.3257 26.3066C19.908 27.4929 18.6772 28.6407 17.4283 29.0084C16.2506 29.3551 15.6705 29.3424 14.4991 28.9432V28.9434ZM16.6526 26.2584C17.3597 25.9893 17.4384 25.4005 17.4384 20.3829C17.4384 17.181 17.3734 15.4421 17.243 15.1586C16.8056 14.2067 15.3048 14.2067 14.8674 15.1586C14.737 15.4421 14.672 17.181 14.672 20.3829C14.672 25.9813 14.7441 26.3061 15.9978 26.3515C16.2041 26.3589 16.4987 26.3169 16.6526 26.2584ZM24.3338 28.8495C24.0849 28.7155 23.7346 28.3134 23.5558 27.9565C23.2541 27.3546 23.2268 26.739 23.1791 19.4665L23.1277 11.6255H26.429V18.8027C26.429 24.9458 26.466 26.0108 26.6861 26.1916C27.0692 26.5068 27.6917 26.2761 28.3955 25.558L29.0224 24.9182V11.6256H32.3075V28.9359H29.0224V27.1928L28.2012 27.9156C27.7496 28.313 27.1296 28.7437 26.8235 28.8728C26.1102 29.1732 24.9142 29.1619 24.3338 28.8495ZM4.29598 24.1795L4.29338 19.4235L2.1569 12.6536L0.0204163 5.88379L1.7563 5.8346C2.77241 5.80581 3.53592 5.85585 3.59782 5.95526C3.65609 6.04867 4.20711 8.01792 4.82227 10.3313C5.43779 12.6447 5.98034 14.5379 6.02857 14.5382C6.07698 14.5386 6.53032 12.9772 7.03621 11.0683C7.54228 9.15953 8.07221 7.19285 8.21416 6.69788L8.47229 5.7981H10.2939C11.7781 5.7981 12.0986 5.84231 12.0234 6.03633C11.9728 6.16727 10.9917 9.249 9.84371 12.8845L7.75633 19.4944V28.9355H4.2984L4.29598 24.1795Z" fill="#010101"/>
<path d="M49.2738 35.6116C40.8269 35.3321 38.5397 34.7362 36.9847 32.4087C36.3563 31.4685 35.6511 29.3642 35.4265 27.7593C34.6381 22.1264 34.8317 10.3805 35.7794 6.33215C36.6377 2.66598 38.6559 0.870001 42.3375 0.495861C45.9542 0.128233 55.3822 -0.0719488 64.5527 0.0240287C74.453 0.127547 79.1142 0.337498 80.8006 0.755857C84.0995 1.57389 85.6998 3.98276 86.2577 8.96879C86.3632 9.91142 86.4929 13.2024 86.5458 16.2819C86.7591 28.7136 85.8156 32.6684 82.2199 34.4146C80.8621 35.0741 79.974 35.2256 76.1365 35.4527C71.9687 35.6992 54.9602 35.7998 49.2738 35.6116ZM53.4292 28.8356C53.7207 28.686 54.3002 28.2522 54.7173 27.8707L55.4756 27.1783V28.9357H58.7606V11.7969H55.4756V24.8676L54.7204 25.6161C53.9098 26.4197 53.582 26.52 53.1539 26.0956C52.9157 25.8594 52.8821 24.96 52.8821 18.8116V11.7967H49.5971V19.2211C49.5971 27.4112 49.665 28.0592 50.5944 28.7468C51.1827 29.182 52.6629 29.2283 53.4292 28.8356ZM69.2406 28.7802C69.5423 28.5979 69.9603 28.0895 70.1915 27.6241C70.5971 26.8076 70.6052 26.6951 70.6621 21.1408C70.7244 15.051 70.6255 13.9514 69.9038 12.717C69.5028 12.0312 68.5467 11.4539 67.8111 11.4539C67.1025 11.4539 66.0873 11.9264 65.3132 12.6163L64.4664 13.3709V5.96949H61.3542V28.9355H64.4664V27.3533L65.1761 27.9889C65.5665 28.3384 66.1307 28.73 66.4296 28.8589C67.2324 29.2055 68.6007 29.1671 69.2406 28.7801V28.7802ZM65.1146 25.9846L64.4662 25.612V15.1007L65.2335 14.6973C65.8561 14.3699 66.0925 14.3259 66.487 14.4632C67.3396 14.76 67.4314 15.4147 67.3722 20.7668L67.319 25.5379L66.8338 25.9513C66.2399 26.4576 65.9481 26.4632 65.1146 25.9846ZM79.6811 28.7499C81.352 27.9991 82.1044 26.7292 82.236 24.4381L82.3224 22.9371H78.9893V23.9545C78.9893 25.2005 78.7945 25.7448 78.2135 26.1222C77.5588 26.5472 76.745 26.2771 76.3532 25.5043C76.1165 25.038 76.0506 24.4697 76.0506 22.8941L76.0501 20.8803H82.2744V18.3638C82.2744 15.1965 82.0245 14.187 80.9472 12.9993C79.9952 11.9499 78.9753 11.5321 77.4333 11.5602C76.155 11.5833 75.3009 11.8992 74.4038 12.68C72.9376 13.9564 72.7153 15.0935 72.8029 20.8804C72.86 24.6405 72.9227 25.5566 73.1689 26.2032C73.5894 27.3073 74.349 28.148 75.392 28.6634C76.5677 29.2437 78.4955 29.2828 79.6811 28.7499ZM76.0503 17.0184C76.0503 14.8867 76.602 14.1593 77.9903 14.4616C78.6873 14.6135 78.9897 15.3868 78.9897 17.0186V18.3094H76.0504V17.0186L76.0503 17.0184ZM46.3121 19.0809V9.22604H50.1158V5.96966H39.2233V9.22604H42.8541V28.9357H46.3121V19.0809Z" fill="black"/>
</g>
<defs>
<clipPath id="clip0">
<rect width="86.5945" height="35.7091" fill="white"/>
</clipPath>
</defs>
</svg>
